<svg version="1.1" xmlns="http://www.w3.org/2000/svg" width="620" height="290" viewBox="-620 -95 1240 580">
    <symbol id="ATLASenseBioMed" viewBox="0 0 182 56">
        <title>ATLASense BioMed</title>
        <path fill="inherit" transform="skewX(-9)" d="
            M5,40v5h13l6.5,12l10-43l5,31h5l-7-45h-5l-10.5,46.5l-4-6.5
            M134,23.5v21.5h3q4,0 4-6q0-5-2-5.5q1.5-1 1.5-5q0-5-3.5-5m-1.5,3h2q1.5,0 1.5,2.5q0,3-2,3h-1.5m0,3h1.5q2,0 2,3.5q0,3-1.5,3h-2
            M142.5,23.5h1.5v21.5h-1.5
            M149.25,23a4.25,11 0,1,0 1,0m0,3.5a2.5,7.5 0,1,1 -1,0
            M155.5,23.5h2l2,13l2-13h2v21.5h-1.5v-13l-2,13h-1l-2-13v13h-1.5
            M166,23.5h6v3h-4.5v5.5h4v3h-4v7h4.5v3h-6
            M174,23.5h3q4,0 4,10q0,11.5 -4,11.5h-3m1.5-3h2q2,0 2-8.5q0-7-2-7h-2"/>
        <path fill="currentColor" transform="skewX(-11)" d="
            M44,0v5h9v40h5v-40h12.5v40h24
            l6-32l6,32
            h10c9,0 12-5 12-11.5c0-5 -10-20 -10-25q0-6 8-6h9
            v18h8v-1.8h-5.5v-7.6h5v-1.8h-5v-6.8h5.5v-2.5h-20
            q-9,0 -9.5,9c0,5 10,20 10,25q0,6 -6,6h-8
            l-7.5-40h-5l-7.5,40h-14.5v-40
            m74,0h-2v20.5h2.5v-14.5l6,14.5h2v-20.5h-2.5v14.5
            m6,6
            h4q4,0 4-4c0-4 -4.5-9 -4.5-11q0-3 4-3h5
            v18h8v-1.8h-5.5v-7.6h5v-1.8h-5v-6.8h5.5v-2.5h-14.5
            q-5,0 -5,5c0,3 4.5,9 4.5,11q0,2.5 -2.5,2.5h-3"/>
    </symbol>
    <symbol id="alertLevel0" viewBox="0 0 26 26">
        <title>Monitoring: Ok</title>
    	<circle cx="12.5" cy="12.5" r="12" fill="#0f0" stroke="#090" stroke-width="1"/>
    </symbol>
    <symbol id="alertLevel1" viewBox="0 0 26 26">
        <title>Monitoring: Warning</title>
        <path d="M0 0h24v24H0z" fill="none"/><path fill="#ffd045" d="M1 21h22L12 2 1 21zm12-3h-2v-2h2v2zm0-4h-2v-4h2v4z"/>
    </symbol>
    <symbol id="alertLevel2" viewBox="0 0 22 22">
        <title>Monitoring: ALERT!</title>
        <path d="M0 0h24v24H0z" fill="none"/><path fill="red" d="M1 21h22L12 2 1 21zm12-3h-2v-2h2v2zm0-4h-2v-4h2v4z"/>
    </symbol>
    <symbol id="alertNotRecording" viewBox="0 0 22 22">
        <title>Not recording. Check power!</title>
        <g><rect fill="none" height="24" width="24"/></g><g><g><path d="M12,2C6.48,2,2,6.48,2,12s4.48,10,10,10s10-4.48,10-10S17.52,2,12,2z M11,16H9V8h2V16z M15,16h-2V8h2V16z" fill="#f90"/></g></g>
    </symbol>
    <symbol id="stageConfiguration" viewBox="0 0 512 512">
        <title>Stage: Configuration</title>
        <!-- <g id="stageConfigurationBG3">
            <path id="stageConfigurationBG6" d="M-3-1v3h2v2h2v-1.1Z" stroke="#cdd" stroke-width="1"/>
            <use href="#stageConfigurationBG6" transform="rotate(60)"/>
        </g>
        <use href="#stageConfigurationBG3" transform="rotate(120)"/>
        <use href="#stageConfigurationBG3" transform="rotate(240)"/>
        <g id="stageConfiguration3">
            <path id="stageConfiguration6" d="M-3-1v3h2v2h2v-1.1" fill="#666" stroke-width="0"/>
            <use href="#stageConfiguration6" transform="rotate(60)"/>
        </g>
        <use href="#stageConfiguration3" transform="rotate(120)"/>
        <use href="#stageConfiguration3" transform="rotate(240)"/> -->
        <svg fill="var(--nav-icon)" width="512px" height="512px" viewBox="0 0 512 512" id="Layer_1" style="enable-background:new 0 0 512 512;" version="1.1" xml:space="preserve" xmlns="http://www.w3.org/2000/svg" xmlns:xlink="http://www.w3.org/1999/xlink"><g><g><path d="M256,82.4c-10.4,0-18.8-8.5-18.8-18.9c0-10.4,8.5-18.8,18.8-18.8s18.8,8.5,18.8,18.8C274.8,74,266.4,82.4,256,82.4z     M256,54.7c-4.9,0-8.8,4-8.8,8.8s4,8.9,8.8,8.9s8.8-4,8.8-8.9S260.9,54.7,256,54.7z"/></g><g><path d="M317.4,115.6H194.6c-4.1,0-7.5-3.4-7.5-7.5V73c0-9.4,7.6-17,17-17h35.1c4.1,0,7.5,3.4,7.5,7.5s-3.4,7.5-7.5,7.5h-35.1    c-1.1,0-2,0.9-2,2v27.6h107.8V73c0-1.1-0.9-2-2-2h-35.1c-4.1,0-7.5-3.4-7.5-7.5s3.4-7.5,7.5-7.5h35.1c9.4,0,17,7.6,17,17v35.1    C324.9,112.2,321.5,115.6,317.4,115.6z"/></g><g><g><g><path d="M337,288.2H175c-4.1,0-7.5-3.4-7.5-7.5s3.4-7.5,7.5-7.5h162c4.1,0,7.5,3.4,7.5,7.5S341.1,288.2,337,288.2z"/></g><g><path d="M337,333.9H175c-4.1,0-7.5-3.4-7.5-7.5s3.4-7.5,7.5-7.5h162c4.1,0,7.5,3.4,7.5,7.5S341.1,333.9,337,333.9z"/></g><g><path d="M337,379.1H175c-4.1,0-7.5-3.4-7.5-7.5s3.4-7.5,7.5-7.5h162c4.1,0,7.5,3.4,7.5,7.5S341.1,379.1,337,379.1z"/></g></g><g><g><path d="M263.7,234h-15.5c-5.1,0-9.3-4.2-9.3-9.3v-8.8h-8.9c-5.1,0-9.3-4.2-9.3-9.3V191c0-5.1,4.2-9.3,9.3-9.3h8.9v-8.8      c0-5.1,4.2-9.3,9.3-9.3h15.5c5.1,0,9.3,4.2,9.3,9.3v8.8h8.9c5.1,0,9.3,4.2,9.3,9.3v15.5c0,5.1-4.2,9.3-9.3,9.3H273v8.8      C273,229.8,268.9,234,263.7,234z M249,224H263v-8.9c0-5.1,4.2-9.3,9.3-9.3h8.8v-14.1h-8.8c-5.1,0-9.3-4.2-9.3-9.3v-8.9H249v8.9      c0,5.1-4.2,9.3-9.3,9.3h-8.8v14.1h8.8c5.1,0,9.3,4.2,9.3,9.3V224z"/></g></g></g><g><path d="M351,439.5H161c-16.9,0-30.6-13.7-30.6-30.6V131.2c0-16.9,13.7-30.6,30.6-30.6h190c16.9,0,30.6,13.7,30.6,30.6v277.6    C381.6,425.8,367.9,439.5,351,439.5z M161,115.6c-8.6,0-15.6,7-15.6,15.6v277.6c0,8.6,7,15.6,15.6,15.6h190    c8.6,0,15.6-7,15.6-15.6V131.2c0-8.6-7-15.6-15.6-15.6H161z"/></g><g><path d="M376.8,469.8H359c-4.1,0-7.5-3.4-7.5-7.5s3.4-7.5,7.5-7.5h17.8c8.6,0,15.6-7,15.6-15.6V100.9c0-8.6-7-15.6-15.6-15.6    h-58.4c-4.1,0-7.5-3.4-7.5-7.5s3.4-7.5,7.5-7.5h58.4c16.9,0,30.6,13.7,30.6,30.6v338.2C407.4,456,393.7,469.8,376.8,469.8z"/></g><g><path d="M335.5,469.8H135.2c-16.9,0-30.6-13.7-30.6-30.6V100.9c0-16.9,13.7-30.6,30.6-30.6h58.4c4.1,0,7.5,3.4,7.5,7.5    s-3.4,7.5-7.5,7.5h-58.4c-8.6,0-15.6,7-15.6,15.6v338.2c0,8.6,7,15.6,15.6,15.6h200.3c4.1,0,7.5,3.4,7.5,7.5    S339.6,469.8,335.5,469.8z"/></g></g></svg>

    </symbol>
    <symbol id="stageCalibrating" viewBox="0 0 26 26">
        <title>Stage: Calibrating</title>
        <circle cx="13" cy="13" r="13" fill="var(--bg-1)"/>
        <circle cx="13" cy="13" r="9.5" fill="var(--fg-ok)" stroke="var(--fg-ok)" stroke-width="2"/>
        <path d="M1 1l7 7m10 10l7 7m-24 0l7-7m10-10l7-7" fill="#ffd0" stroke="var(--fg-ok)" stroke-width="2.4"/>
        <path d="M13 8v10m-5-5h10" fill="#ffd0" stroke="var(--bg-1)" stroke-width="2"/>
    </symbol>
    <symbol id="stageMonitoring" viewBox="0 0 16 16">
        <title>Stage: Monitoring</title>
        <!-- <rect x="0" y="0" width="26" height="26" fill="#ffd" stroke="#000" stroke-width="1"/>
        <path d="M1 19h9l2 3l7-20l2 19l3-1h1" fill="#ffd0" stroke="#0aa" stroke-width="3"/> -->
        <svg width="20px" height="20px" viewBox="0 0 16 16" xmlns="http://www.w3.org/2000/svg" fill="rgb(27, 183, 189)"><path d="M11.8 9L10 3H9L7.158 9.64 5.99 4.69h-.97L3.85 9H1v.99h3.23l.49-.37.74-2.7L6.59 12h1.03l1.87-7.04 1.46 4.68.48.36H15V9h-3.2z"/></svg>
    </symbol>
    <symbol id="stageFinished" viewBox="0 0 26 26">
        <title>Stage: Finished</title>
        <path d="M13 1v13m-4-4l4 4l4-4M16 7h4l4 9v8h-22v-8l4-9h4" fill="#8c80" stroke="currentColor" stroke-width="2"/>
        <path d="M2 18q0-3 3-3h4q0 4 4 4q4 0 4-4h4q3 0 3 3v6h-22z" fill="#8c89" stroke="currentColor" stroke-width="2"/>
    </symbol>
    <symbol id="A4PolyMonitor" viewBox="0 0 34 20">
        <title>PolyMonitor</title>
        <path d="M10,0a12,11 1,1,0 14,0v2a9,7 1,1,1 -14,0a8,6 1,1,0 14,0h-2v-2h-1v2h-2v-2Z
            M5,4a2,1.5 1,1,1 1-2M4,12a2.5,2 1,1,0 1,2M29,4a2,1.5 1,1,0 -1-2M30,12a2.5,2 1,1,1 -1,2"
            fill="currentColor" stroke="inherit" />
    </symbol>
    <symbol id="A4E1" viewBox="0 0 34 20"><title>E1</title><path d="M29, 4a2,1.5 1,1,0 -1-2" fill="currentColor" stroke="inherit" /></symbol>
    <symbol id="A4E2" viewBox="0 0 34 20"><title>E2</title><path d="M 4,12a2.5,2 1,1,0  1,2" fill="currentColor" stroke="inherit" /></symbol>
    <symbol id="A4E3" viewBox="0 0 34 20"><title>E3</title><path d="M30,12a2.5,2 1,1,1 -1,2" fill="currentColor" stroke="inherit" /></symbol>
    <symbol id="A4E4" viewBox="0 0 34 20"><title>E4</title><path d="M 5, 4a2,1.5 1,1,1  1-2" fill="currentColor" stroke="inherit" /></symbol>
</svg>